<svg id="Layer_1" enable-background="new 0 0 512 512" height="512" viewBox="0 0 512 512" width="512" xmlns="http://www.w3.org/2000/svg"><g><path d="m437.7 0h-363.4c-8.29 0-15 6.72-15 15v482c0 8.28 6.72 15 15 15h363.4c8.29 0 15-6.72 15-15v-482c0-8.28-6.72-15-15-15zm-181.7 43.35c70.49 0 127.84 57.35 127.84 127.84s-57.35 127.83-127.84 127.83-127.84-57.34-127.84-127.83 57.35-127.84 127.84-127.84zm-134.96 309.11c0-8.28 6.72-15 15-15h95.67c8.28 0 15 6.72 15 15 0 8.29-6.72 15-15 15h-95.67c-8.28 0-15-6.71-15-15zm190.51 75h-93c-8.28 0-15-6.71-15-15 0-8.28 6.72-15 15-15h93c8.29 0 15 6.72 15 15 0 8.29-6.71 15-15 15zm64.41-60h-93c-8.28 0-15-6.71-15-15 0-8.28 6.72-15 15-15h93c8.28 0 15 6.72 15 15 0 8.29-6.72 15-15 15z"/><path d="m312.61 252.3c-16.01 11.28-35.53 17.9-56.61 17.9-21.01 0-40.48-6.58-56.46-17.8 7.24-24.49 30.08-42.31 56.52-42.31 26.71 0 49.36 17.51 56.55 42.21z"/><circle cx="256.06" cy="157.64" r="22.45"/><path d="m354.44 171.77c0 21.56-6.95 41.51-18.71 57.72-4.84-9.76-11.48-18.64-19.7-26.14-5.75-5.25-12.1-9.65-18.87-13.19 7.1-8.94 11.35-20.24 11.35-32.52 0-28.92-23.53-52.45-52.45-52.45s-52.45 23.53-52.45 52.45c0 12.28 4.25 23.57 11.35 32.52-7 3.65-13.55 8.24-19.45 13.72-7.99 7.43-14.44 16.15-19.17 25.71-11.81-16.23-18.77-36.21-18.77-57.82 0-54.37 44.07-98.44 98.43-98.44s98.44 44.07 98.44 98.44z"/></g></svg>